# xmcd
#
# Track frame offsets: 
#        150
#        24305
#        45252
#        66385
#        89817
#        111812
#        131570
#        151542
#        167302
#        189062
#        214837
#        239155
#        261275
#        282422
#        302497
#        322750
#
# Disc length: 4595 seconds
#
# Revision: 17
# Processed by: cddbd v1.5.2PL0 Copyright (c) Steve Scherf et al.
# Submitted via: ExactAudioCopy v1.0b4
#
DISCID=d111f110
DTITLE=??? - BESTYO+INSTYO Disc 1 BESTYO COCP-35464-6
DYEAR=2006
DGENRE=J-Pop
TTITLE0=?????
TTITLE1=??
TTITLE2=?????
TTITLE3=???(?????) 
TTITLE4=???
TTITLE5=???
TTITLE6=??????? 
TTITLE7=????? 
TTITLE8=??(?????) 
TTITLE9=????????
TTITLE10=??? 
TTITLE11=?????
TTITLE12=????? 
TTITLE13=?????
TTITLE14=??????? ~Long ver. 
TTITLE15=?????
EXTD=YEAR: 2006
EXTT0=
EXTT1=
EXTT2=
EXTT3=
EXTT4=
EXTT5=
EXTT6=
EXTT7=
EXTT8=
EXTT9=
EXTT10=
EXTT11=
EXTT12=
EXTT13=
EXTT14=
EXTT15=
PLAYORDER=
